<svg width="32" height="31" viewBox="0 0 32 31" fill="none" xmlns="http://www.w3.org/2000/svg">
<path d="M15.9998 1.3999H11.3332C10.0955 1.3999 8.90851 1.89157 8.03334 2.76674C7.15817 3.64191 6.6665 4.82889 6.6665 6.06657C6.6665 7.30425 7.15817 8.49123 8.03334 9.3664C8.90851 10.2416 10.0955 10.7332 11.3332 10.7332M15.9998 1.3999V10.7332M15.9998 1.3999H20.6665C21.2793 1.3999 21.8862 1.52061 22.4524 1.75513C23.0185 1.98965 23.533 2.3334 23.9663 2.76674C24.3997 3.20008 24.7434 3.71453 24.9779 4.28071C25.2125 4.8469 25.3332 5.45373 25.3332 6.06657C25.3332 6.6794 25.2125 7.28624 24.9779 7.85243C24.7434 8.41861 24.3997 8.93306 23.9663 9.3664C23.533 9.79974 23.0185 10.1435 22.4524 10.378C21.8862 10.6125 21.2793 10.7332 20.6665 10.7332M15.9998 10.7332H11.3332M15.9998 10.7332H20.6665M15.9998 10.7332V20.0666M11.3332 10.7332C10.0955 10.7332 8.90851 11.2249 8.03334 12.1001C7.15817 12.9752 6.6665 14.1622 6.6665 15.3999C6.6665 16.6376 7.15817 17.8246 8.03334 18.6997C8.90851 19.5749 10.0955 20.0666 11.3332 20.0666M20.6665 10.7332C20.0537 10.7332 19.4468 10.8539 18.8806 11.0885C18.3145 11.323 17.8 11.6667 17.3667 12.1001C16.9333 12.5334 16.5896 13.0479 16.3551 13.614C16.1205 14.1802 15.9998 14.7871 15.9998 15.3999C15.9998 16.0127 16.1205 16.6196 16.3551 17.1858C16.5896 17.7519 16.9333 18.2664 17.3667 18.6997C17.8 19.1331 18.3145 19.4768 18.8806 19.7113C19.4468 19.9459 20.0537 20.0666 20.6665 20.0666C21.2793 20.0666 21.8862 19.9459 22.4524 19.7113C23.0185 19.4768 23.533 19.1331 23.9663 18.6997C24.3997 18.2664 24.7434 17.7519 24.9779 17.1858C25.2125 16.6196 25.3332 16.0127 25.3332 15.3999C25.3332 14.7871 25.2125 14.1802 24.9779 13.614C24.7434 13.0479 24.3997 12.5334 23.9663 12.1001C23.533 11.6667 23.0185 11.323 22.4524 11.0885C21.8862 10.8539 21.2793 10.7332 20.6665 10.7332ZM11.3332 20.0666C10.0955 20.0666 8.90851 20.5582 8.03334 21.4334C7.15817 22.3086 6.6665 23.4956 6.6665 24.7332C6.6665 25.9709 7.15817 27.1579 8.03334 28.0331C8.90851 28.9082 10.0955 29.3999 11.3332 29.3999C12.5708 29.3999 13.7578 28.9082 14.633 28.0331C15.5082 27.1579 15.9998 25.9709 15.9998 24.7332V20.0666M11.3332 20.0666H15.9998" stroke="#1E1E1E" stroke-width="2.8" stroke-linecap="round" stroke-linejoin="round"/>
</svg>
